<svg width="842" height="240" viewBox="0 0 842 240" fill="none" xmlns="http://www.w3.org/2000/svg">
<path d="M13.6793 96.8V83.3H0.0292972V41.15H13.6793V27.5H55.9793V41.15H69.7793V56H54.4793V42.5H15.1793V54.5H42.4793V69.65H15.1793V81.8H54.4793V68H69.7793V83.15H55.9793V96.8H13.6793ZM123.92 96.8V27.5H179.87V41.15H193.67V96.8H178.37V42.5H139.07V96.8H123.92ZM268.955 96.8V83.3H255.455V42.5H241.805V27.5H255.455V0.349994H270.455V27.5H311.555V42.5H270.455V81.8H310.055V68.15H325.205V83.3H311.555V96.8H268.955ZM379.318 96.8V41.15H392.968V27.5H435.268V41.15H449.068V56H433.768V42.5H394.468V96.8H379.318ZM512.318 96.8V83.3H498.668V41.15H512.318V27.5H554.618V41.15H568.418V83.3H554.618V96.8H512.318ZM513.818 81.8H553.118V42.5H513.818V81.8ZM622.559 123.2V41.15H636.209V27.5H678.509V41.15H692.309V83.3H678.509V96.8H637.709V123.2H622.559ZM637.709 81.8H677.009V42.5H637.709V81.8ZM760.099 123.95V110.45H746.449V95.45H761.599V108.95H801.049V83.3H760.099V69.65H746.449V27.5H761.599V68.15H801.049V27.5H816.199V110.45H802.549V123.95H760.099ZM13.6793 212.8V199.3H0.0292972V157.15H13.6793V143.5H55.9793V157.15H69.7793V172H54.4793V158.5H15.1793V197.8H54.4793V184.15H69.7793V199.3H55.9793V212.8H13.6793ZM133.029 212.8V199.3H119.379V157.15H133.029V143.5H175.329V157.15H189.129V199.3H175.329V212.8H133.029ZM134.529 197.8H173.829V158.5H134.529V197.8ZM243.27 212.8V143.5H285.72V157.15H297.72V143.5H326.67V157.15H340.17V212.8H325.17V158.5H299.22V212.8H284.22V158.5H258.42V212.8H243.27ZM394.26 239.2V157.15H407.91V143.5H450.21V157.15H464.01V199.3H450.21V212.8H409.41V239.2H394.26ZM409.41 197.8H448.71V158.5H409.41V197.8ZM531.8 212.8V199.3H518.15V157.15H531.8V143.5H574.1V157.15H587.9V197.8H601.55V212.8H586.4V199.3H574.1V212.8H531.8ZM533.3 197.8H572.6V158.5H533.3V197.8ZM651.123 212.8V197.8H705.573V185.65H664.773V172H651.123V157.15H664.773V143.5H720.873V158.5H666.273V170.5H707.073V184.15H720.873V199.3H707.073V212.8H651.123ZM772.084 212.8V197.8H826.534V185.65H785.734V172H772.084V157.15H785.734V143.5H841.834V158.5H787.234V170.5H828.034V184.15H841.834V199.3H828.034V212.8H772.084Z" fill="#341DB9"/>
</svg>
